<svg width="128" height="128" viewBox="0 0 128 128" fill="none" xmlns="http://www.w3.org/2000/svg" role="img" aria-labelledby="title desc">
  <title id="title">Design Handoff Bridge icon variation 2</title>
  <desc id="desc">A bridge connecting Figma variable nodes to a GitHub issue document.</desc>
  <rect width="128" height="128" rx="32" fill="#F6F6F2"/>
  <rect x="8" y="8" width="112" height="112" rx="28" fill="#FFFFFF" stroke="#000000" stroke-width="4"/>
  <circle cx="32" cy="36" r="8" fill="#000000"/>
  <circle cx="32" cy="60" r="8" fill="#FFFFFF" stroke="#000000" stroke-width="4"/>
  <circle cx="32" cy="84" r="8" fill="#000000"/>
  <path d="M32 44V52" stroke="#000000" stroke-width="4" stroke-linecap="round"/>
  <path d="M32 68V76" stroke="#000000" stroke-width="4" stroke-linecap="round"/>
  <path d="M44 88H84" stroke="#000000" stroke-width="8" stroke-linecap="round"/>
  <path d="M44 72C44 52 56 40 64 40C72 40 84 52 84 72" stroke="#000000" stroke-width="8" stroke-linecap="round"/>
  <path d="M56 88V72" stroke="#000000" stroke-width="4" stroke-linecap="round"/>
  <path d="M64 88V56" stroke="#000000" stroke-width="4" stroke-linecap="round"/>
  <path d="M72 88V72" stroke="#000000" stroke-width="4" stroke-linecap="round"/>
  <rect x="84" y="32" width="24" height="40" rx="8" fill="#FFFFFF" stroke="#000000" stroke-width="4"/>
  <path d="M92 44H100" stroke="#000000" stroke-width="4" stroke-linecap="round"/>
  <path d="M92 56H100" stroke="#000000" stroke-width="4" stroke-linecap="round"/>
  <circle cx="96" cy="88" r="12" fill="#000000"/>
  <path d="M90 88H102" stroke="#FFFFFF" stroke-width="4" stroke-linecap="round"/>
  <path d="M96 82V94" stroke="#FFFFFF" stroke-width="4" stroke-linecap="round"/>
</svg>
