<svg width="1920" height="1080" viewBox="0 0 1920 1080" fill="none" xmlns="http://www.w3.org/2000/svg" role="img" aria-labelledby="title desc">
  <title id="title">Design Handoff Bridge playground</title>
  <desc id="desc">A Figma playground starter with variable tokens, primitive cards, and GitHub handoff placeholders.</desc>
  <rect width="1920" height="1080" fill="#F6F6F2"/>
  <rect x="80" y="80" width="1760" height="920" rx="48" fill="#FFFFFF" stroke="#000000" stroke-width="4"/>
  <text x="144" y="184" fill="#000000" font-family="Inter, Arial, sans-serif" font-size="64" font-weight="900">Try Design Handoff Bridge</text>
  <text x="144" y="248" fill="#000000" font-family="Inter, Arial, sans-serif" font-size="28" font-weight="700">Import this SVG into a Figma file, then create variables and primitives from the labeled sections.</text>
  <g transform="translate(144 336)">
    <rect width="488" height="504" rx="32" fill="#F6F6F2" stroke="#000000" stroke-width="4"/>
    <text x="40" y="72" fill="#000000" font-family="Inter, Arial, sans-serif" font-size="36" font-weight="900">Variable collection</text>
    <circle cx="64" cy="144" r="24" fill="#000000"/>
    <text x="112" y="156" fill="#000000" font-family="Inter, Arial, sans-serif" font-size="28" font-weight="800">color.background</text>
    <circle cx="64" cy="224" r="24" fill="#FFFFFF" stroke="#000000" stroke-width="4"/>
    <text x="112" y="236" fill="#000000" font-family="Inter, Arial, sans-serif" font-size="28" font-weight="800">color.foreground</text>
    <rect x="40" y="296" width="176" height="64" rx="32" fill="#000000"/>
    <text x="72" y="338" fill="#FFFFFF" font-family="Inter, Arial, sans-serif" font-size="24" font-weight="900">Light</text>
    <rect x="232" y="296" width="176" height="64" rx="32" fill="#FFFFFF" stroke="#000000" stroke-width="4"/>
    <text x="264" y="338" fill="#000000" font-family="Inter, Arial, sans-serif" font-size="24" font-weight="900">Dark</text>
    <rect x="40" y="408" width="344" height="32" rx="16" fill="#000000"/>
  </g>
  <g transform="translate(716 336)">
    <rect width="488" height="504" rx="32" fill="#FFFFFF" stroke="#000000" stroke-width="4"/>
    <text x="40" y="72" fill="#000000" font-family="Inter, Arial, sans-serif" font-size="36" font-weight="900">Primitive samples</text>
    <rect x="40" y="120" width="184" height="88" rx="24" fill="#000000"/>
    <text x="84" y="176" fill="#FFFFFF" font-family="Inter, Arial, sans-serif" font-size="28" font-weight="900">Button</text>
    <rect x="40" y="248" width="384" height="88" rx="24" fill="#F6F6F2" stroke="#000000" stroke-width="4"/>
    <text x="80" y="304" fill="#000000" font-family="Inter, Arial, sans-serif" font-size="28" font-weight="900">Input field</text>
    <rect x="40" y="376" width="384" height="88" rx="24" fill="#FFFFFF" stroke="#000000" stroke-width="4"/>
    <text x="80" y="432" fill="#000000" font-family="Inter, Arial, sans-serif" font-size="28" font-weight="900">Card surface</text>
  </g>
  <g transform="translate(1288 336)">
    <rect width="488" height="504" rx="32" fill="#000000"/>
    <text x="40" y="72" fill="#FFFFFF" font-family="Inter, Arial, sans-serif" font-size="36" font-weight="900">GitHub handoff</text>
    <rect x="40" y="120" width="408" height="80" rx="24" fill="#FFFFFF"/>
    <text x="72" y="172" fill="#000000" font-family="Inter, Arial, sans-serif" font-size="28" font-weight="900">Design Token Issue</text>
    <rect x="40" y="240" width="408" height="32" rx="16" fill="#FFFFFF"/>
    <rect x="40" y="304" width="328" height="32" rx="16" fill="#FFFFFF"/>
    <rect x="40" y="368" width="248" height="32" rx="16" fill="#FFFFFF"/>
    <text x="40" y="456" fill="#FFFFFF" font-family="Inter, Arial, sans-serif" font-size="24" font-weight="800">Sync design-tokens.json</text>
  </g>
</svg>
